<mxfile host="app.diagrams.net" agent="Mozilla/5.0 (Macintosh; Intel Mac OS X 10_15_7) AppleWebKit/537.36 (KHTML, like Gecko) Chrome/133.0.0.0 Safari/537.36" version="26.0.16">
  <diagram name="Page-1" id="aaaa8250-4180-3840-79b5-4cada1eebb92">
    <mxGraphModel dx="2788" dy="265" grid="1" gridSize="10" guides="1" tooltips="1" connect="1" arrows="1" fold="1" page="1" pageScale="1" pageWidth="850" pageHeight="1100" background="none" math="0" shadow="0">
      <root>
        <mxCell id="0" />
        <mxCell id="1" parent="0" />
        <mxCell id="Ew1byed4Xy0qn33XiM6J-30" value="Public subnet" style="points=[[0,0],[0.25,0],[0.5,0],[0.75,0],[1,0],[1,0.25],[1,0.5],[1,0.75],[1,1],[0.75,1],[0.5,1],[0.25,1],[0,1],[0,0.75],[0,0.5],[0,0.25]];outlineConnect=0;gradientColor=none;html=1;whiteSpace=wrap;fontSize=12;fontStyle=0;container=1;pointerEvents=0;collapsible=0;recursiveResize=0;shape=mxgraph.aws4.group;grIcon=mxgraph.aws4.group_security_group;grStroke=0;strokeColor=#7AA116;fillColor=#F2F6E8;verticalAlign=top;align=left;spacingLeft=30;fontColor=#248814;dashed=0;" vertex="1" parent="1">
          <mxGeometry x="110" y="1540" width="660" height="169.5" as="geometry" />
        </mxCell>
        <mxCell id="Ew1byed4Xy0qn33XiM6J-37" style="edgeStyle=orthogonalEdgeStyle;rounded=0;orthogonalLoop=1;jettySize=auto;html=1;exitX=0;exitY=0.5;exitDx=0;exitDy=0;" edge="1" parent="1" source="Ew1byed4Xy0qn33XiM6J-28" target="Ew1byed4Xy0qn33XiM6J-35">
          <mxGeometry relative="1" as="geometry" />
        </mxCell>
        <mxCell id="Ew1byed4Xy0qn33XiM6J-28" value="Private subnet" style="points=[[0,0],[0.25,0],[0.5,0],[0.75,0],[1,0],[1,0.25],[1,0.5],[1,0.75],[1,1],[0.75,1],[0.5,1],[0.25,1],[0,1],[0,0.75],[0,0.5],[0,0.25]];outlineConnect=0;gradientColor=none;html=1;whiteSpace=wrap;fontSize=12;fontStyle=0;container=1;pointerEvents=0;collapsible=0;recursiveResize=0;shape=mxgraph.aws4.group;grIcon=mxgraph.aws4.group_security_group;grStroke=0;strokeColor=#00A4A6;fillColor=#E6F6F7;verticalAlign=top;align=left;spacingLeft=30;fontColor=#147EBA;dashed=0;" vertex="1" parent="1">
          <mxGeometry x="110" y="1750" width="660" height="180" as="geometry" />
        </mxCell>
        <mxCell id="Ew1byed4Xy0qn33XiM6J-2" value="" style="outlineConnect=0;dashed=0;verticalLabelPosition=bottom;verticalAlign=top;align=center;html=1;shape=mxgraph.aws3.ec2;fillColor=#F58534;gradientColor=none;" vertex="1" parent="1">
          <mxGeometry x="540" y="1800" width="76.5" height="93" as="geometry" />
        </mxCell>
        <mxCell id="Ew1byed4Xy0qn33XiM6J-3" value="" style="outlineConnect=0;dashed=0;verticalLabelPosition=bottom;verticalAlign=top;align=center;html=1;shape=mxgraph.aws3.ec2;fillColor=#F58534;gradientColor=none;" vertex="1" parent="1">
          <mxGeometry x="266.75" y="1800" width="76.5" height="93" as="geometry" />
        </mxCell>
        <mxCell id="Ew1byed4Xy0qn33XiM6J-15" value="" style="outlineConnect=0;dashed=0;verticalLabelPosition=bottom;verticalAlign=top;align=center;html=1;shape=mxgraph.aws3.ec2;fillColor=#F58534;gradientColor=none;" vertex="1" parent="1">
          <mxGeometry x="270" y="1579.5" width="76.5" height="93" as="geometry" />
        </mxCell>
        <mxCell id="Ew1byed4Xy0qn33XiM6J-22" style="edgeStyle=orthogonalEdgeStyle;rounded=0;orthogonalLoop=1;jettySize=auto;html=1;exitX=0.5;exitY=1;exitDx=0;exitDy=0;exitPerimeter=0;" edge="1" parent="1" source="Ew1byed4Xy0qn33XiM6J-16" target="Ew1byed4Xy0qn33XiM6J-3">
          <mxGeometry relative="1" as="geometry" />
        </mxCell>
        <mxCell id="Ew1byed4Xy0qn33XiM6J-16" value="" style="outlineConnect=0;dashed=0;verticalLabelPosition=bottom;verticalAlign=top;align=center;html=1;shape=mxgraph.aws3.application_load_balancer;fillColor=#F58534;gradientColor=none;" vertex="1" parent="1">
          <mxGeometry x="406" y="1590" width="69" height="72" as="geometry" />
        </mxCell>
        <mxCell id="Ew1byed4Xy0qn33XiM6J-21" value="" style="group" vertex="1" connectable="0" parent="1">
          <mxGeometry x="240" y="1550" width="130" height="140" as="geometry" />
        </mxCell>
        <mxCell id="Ew1byed4Xy0qn33XiM6J-19" value="" style="rounded=1;arcSize=10;dashed=0;fillColor=none;gradientColor=none;strokeWidth=2;" vertex="1" parent="Ew1byed4Xy0qn33XiM6J-21">
          <mxGeometry y="12.73" width="130" height="127.27" as="geometry" />
        </mxCell>
        <mxCell id="Ew1byed4Xy0qn33XiM6J-20" value="" style="dashed=0;html=1;shape=mxgraph.aws3.virtual_private_cloud;fillColor=#F58536;gradientColor=none;dashed=0;" vertex="1" parent="Ew1byed4Xy0qn33XiM6J-21">
          <mxGeometry x="12.727" width="33.090199999999996" height="22.90909090909091" as="geometry" />
        </mxCell>
        <mxCell id="Ew1byed4Xy0qn33XiM6J-23" style="edgeStyle=orthogonalEdgeStyle;rounded=0;orthogonalLoop=1;jettySize=auto;html=1;exitX=0.5;exitY=1;exitDx=0;exitDy=0;exitPerimeter=0;entryX=0.5;entryY=0;entryDx=0;entryDy=0;entryPerimeter=0;" edge="1" parent="1" source="Ew1byed4Xy0qn33XiM6J-16" target="Ew1byed4Xy0qn33XiM6J-2">
          <mxGeometry relative="1" as="geometry" />
        </mxCell>
        <mxCell id="Ew1byed4Xy0qn33XiM6J-24" style="edgeStyle=orthogonalEdgeStyle;rounded=0;orthogonalLoop=1;jettySize=auto;html=1;exitX=0.5;exitY=0;exitDx=0;exitDy=0;exitPerimeter=0;entryX=0.5;entryY=1;entryDx=0;entryDy=0;entryPerimeter=0;" edge="1" parent="1" source="Ew1byed4Xy0qn33XiM6J-2" target="Ew1byed4Xy0qn33XiM6J-16">
          <mxGeometry relative="1" as="geometry" />
        </mxCell>
        <mxCell id="Ew1byed4Xy0qn33XiM6J-25" style="edgeStyle=orthogonalEdgeStyle;rounded=0;orthogonalLoop=1;jettySize=auto;html=1;exitX=0.5;exitY=0;exitDx=0;exitDy=0;exitPerimeter=0;entryX=0.5;entryY=1;entryDx=0;entryDy=0;entryPerimeter=0;" edge="1" parent="1" source="Ew1byed4Xy0qn33XiM6J-3" target="Ew1byed4Xy0qn33XiM6J-16">
          <mxGeometry relative="1" as="geometry" />
        </mxCell>
        <mxCell id="Ew1byed4Xy0qn33XiM6J-29" value="`" style="text;html=1;align=center;verticalAlign=middle;resizable=0;points=[];autosize=1;strokeColor=none;fillColor=none;" vertex="1" parent="1">
          <mxGeometry x="475" y="1848" width="30" height="30" as="geometry" />
        </mxCell>
        <mxCell id="Ew1byed4Xy0qn33XiM6J-34" value="VPC" style="points=[[0,0],[0.25,0],[0.5,0],[0.75,0],[1,0],[1,0.25],[1,0.5],[1,0.75],[1,1],[0.75,1],[0.5,1],[0.25,1],[0,1],[0,0.75],[0,0.5],[0,0.25]];outlineConnect=0;gradientColor=none;html=1;whiteSpace=wrap;fontSize=12;fontStyle=0;container=1;pointerEvents=0;collapsible=0;recursiveResize=0;shape=mxgraph.aws4.group;grIcon=mxgraph.aws4.group_vpc2;strokeColor=#8C4FFF;fillColor=none;verticalAlign=top;align=left;spacingLeft=30;fontColor=#AAB7B8;dashed=0;" vertex="1" parent="1">
          <mxGeometry x="40" y="1440" width="800" height="520" as="geometry" />
        </mxCell>
        <mxCell id="Ew1byed4Xy0qn33XiM6J-35" value="" style="sketch=0;outlineConnect=0;fontColor=#232F3E;gradientColor=none;fillColor=#8C4FFF;strokeColor=none;dashed=0;verticalLabelPosition=bottom;verticalAlign=top;align=center;html=1;fontSize=12;fontStyle=0;aspect=fixed;pointerEvents=1;shape=mxgraph.aws4.nat_gateway;" vertex="1" parent="Ew1byed4Xy0qn33XiM6J-34">
          <mxGeometry x="90" y="145.75" width="78" height="78" as="geometry" />
        </mxCell>
        <mxCell id="Ew1byed4Xy0qn33XiM6J-32" value="Front" style="text;html=1;align=center;verticalAlign=middle;resizable=0;points=[];autosize=1;strokeColor=none;fillColor=none;" vertex="1" parent="Ew1byed4Xy0qn33XiM6J-34">
          <mxGeometry x="243.25" y="453" width="50" height="30" as="geometry" />
        </mxCell>
        <mxCell id="Ew1byed4Xy0qn33XiM6J-33" value="Back" style="text;html=1;align=center;verticalAlign=middle;resizable=0;points=[];autosize=1;strokeColor=none;fillColor=none;" vertex="1" parent="Ew1byed4Xy0qn33XiM6J-34">
          <mxGeometry x="513.25" y="447.5" width="50" height="30" as="geometry" />
        </mxCell>
        <mxCell id="Ew1byed4Xy0qn33XiM6J-14" value="" style="sketch=0;outlineConnect=0;fontColor=#232F3E;gradientColor=none;fillColor=#8C4FFF;strokeColor=none;dashed=0;verticalLabelPosition=bottom;verticalAlign=top;align=center;html=1;fontSize=12;fontStyle=0;aspect=fixed;pointerEvents=1;shape=mxgraph.aws4.internet_gateway;" vertex="1" parent="1">
          <mxGeometry x="401.5" y="1400" width="78" height="78" as="geometry" />
        </mxCell>
        <mxCell id="Ew1byed4Xy0qn33XiM6J-38" style="edgeStyle=orthogonalEdgeStyle;rounded=0;orthogonalLoop=1;jettySize=auto;html=1;" edge="1" parent="1" source="Ew1byed4Xy0qn33XiM6J-35" target="Ew1byed4Xy0qn33XiM6J-28">
          <mxGeometry relative="1" as="geometry">
            <Array as="points">
              <mxPoint x="169" y="1707" />
              <mxPoint x="90" y="1707" />
              <mxPoint x="90" y="1840" />
            </Array>
          </mxGeometry>
        </mxCell>
        <mxCell id="Ew1byed4Xy0qn33XiM6J-48" style="edgeStyle=orthogonalEdgeStyle;rounded=0;orthogonalLoop=1;jettySize=auto;html=1;entryX=0;entryY=0.5;entryDx=0;entryDy=0;" edge="1" parent="1" source="Ew1byed4Xy0qn33XiM6J-39" target="Ew1byed4Xy0qn33XiM6J-43">
          <mxGeometry relative="1" as="geometry" />
        </mxCell>
        <mxCell id="Ew1byed4Xy0qn33XiM6J-39" value="" style="dashed=0;outlineConnect=0;html=1;align=center;labelPosition=center;verticalLabelPosition=bottom;verticalAlign=top;shape=mxgraph.weblogos.github" vertex="1" parent="1">
          <mxGeometry x="-550" y="1812.5" width="75" height="75" as="geometry" />
        </mxCell>
        <mxCell id="Ew1byed4Xy0qn33XiM6J-50" style="edgeStyle=orthogonalEdgeStyle;rounded=0;orthogonalLoop=1;jettySize=auto;html=1;exitX=1;exitY=0.5;exitDx=0;exitDy=0;exitPerimeter=0;entryX=0;entryY=0.5;entryDx=0;entryDy=0;entryPerimeter=0;" edge="1" parent="1" source="Ew1byed4Xy0qn33XiM6J-40" target="Ew1byed4Xy0qn33XiM6J-3">
          <mxGeometry relative="1" as="geometry">
            <mxPoint x="-10" y="1852.1923076923076" as="targetPoint" />
          </mxGeometry>
        </mxCell>
        <mxCell id="Ew1byed4Xy0qn33XiM6J-40" value="" style="outlineConnect=0;dashed=0;verticalLabelPosition=bottom;verticalAlign=top;align=center;html=1;shape=mxgraph.aws3.codedeploy;fillColor=#759C3E;gradientColor=none;" vertex="1" parent="1">
          <mxGeometry x="-233.5" y="1809.5" width="67.5" height="81" as="geometry" />
        </mxCell>
        <mxCell id="Ew1byed4Xy0qn33XiM6J-43" value="" style="shape=image;verticalLabelPosition=bottom;labelBackgroundColor=default;verticalAlign=top;aspect=fixed;imageAspect=0;image=https://duinaru.github.io/img/uploads/githubactions.png;" vertex="1" parent="1">
          <mxGeometry x="-395.5" y="1809.5" width="81" height="81" as="geometry" />
        </mxCell>
        <mxCell id="Ew1byed4Xy0qn33XiM6J-44" value="" style="outlineConnect=0;dashed=0;verticalLabelPosition=bottom;verticalAlign=top;align=center;html=1;shape=mxgraph.aws3.s3;fillColor=#E05243;gradientColor=none;" vertex="1" parent="1">
          <mxGeometry x="-238" y="1640" width="76.5" height="93" as="geometry" />
        </mxCell>
        <mxCell id="Ew1byed4Xy0qn33XiM6J-45" style="edgeStyle=orthogonalEdgeStyle;rounded=0;orthogonalLoop=1;jettySize=auto;html=1;exitX=0.5;exitY=0;exitDx=0;exitDy=0;entryX=0;entryY=0.5;entryDx=0;entryDy=0;entryPerimeter=0;" edge="1" parent="1" source="Ew1byed4Xy0qn33XiM6J-43" target="Ew1byed4Xy0qn33XiM6J-44">
          <mxGeometry relative="1" as="geometry" />
        </mxCell>
        <mxCell id="Ew1byed4Xy0qn33XiM6J-47" style="edgeStyle=orthogonalEdgeStyle;rounded=0;orthogonalLoop=1;jettySize=auto;html=1;exitX=0.5;exitY=1;exitDx=0;exitDy=0;exitPerimeter=0;entryX=0.5;entryY=0;entryDx=0;entryDy=0;entryPerimeter=0;" edge="1" parent="1" source="Ew1byed4Xy0qn33XiM6J-44" target="Ew1byed4Xy0qn33XiM6J-40">
          <mxGeometry relative="1" as="geometry" />
        </mxCell>
        <mxCell id="Ew1byed4Xy0qn33XiM6J-49" style="edgeStyle=orthogonalEdgeStyle;rounded=0;orthogonalLoop=1;jettySize=auto;html=1;exitX=1;exitY=0.5;exitDx=0;exitDy=0;entryX=0;entryY=0.5;entryDx=0;entryDy=0;entryPerimeter=0;" edge="1" parent="1" source="Ew1byed4Xy0qn33XiM6J-43" target="Ew1byed4Xy0qn33XiM6J-40">
          <mxGeometry relative="1" as="geometry" />
        </mxCell>
        <mxCell id="Ew1byed4Xy0qn33XiM6J-51" style="edgeStyle=orthogonalEdgeStyle;rounded=0;orthogonalLoop=1;jettySize=auto;html=1;entryX=0.5;entryY=1;entryDx=0;entryDy=0;entryPerimeter=0;" edge="1" parent="1" source="Ew1byed4Xy0qn33XiM6J-40" target="Ew1byed4Xy0qn33XiM6J-2">
          <mxGeometry relative="1" as="geometry">
            <Array as="points">
              <mxPoint x="-200" y="2000" />
              <mxPoint x="578" y="2000" />
            </Array>
          </mxGeometry>
        </mxCell>
      </root>
    </mxGraphModel>
  </diagram>
</mxfile>
